<?xml version="1.0" encoding="utf-8"?>
<!-- Generator: Adobe Illustrator 15.0.0, SVG Export Plug-In  -->
<!DOCTYPE svg PUBLIC "-//W3C//DTD SVG 1.1//EN" "http://www.w3.org/Graphics/SVG/1.1/DTD/svg11.dtd" [
	<!ENTITY ns_flows "http://ns.adobe.com/Flows/1.0/">
]>
<svg version="1.1"
	 xmlns="http://www.w3.org/2000/svg" xmlns:xlink="http://www.w3.org/1999/xlink" xmlns:a="http://ns.adobe.com/AdobeSVGViewerExtensions/3.0/"
	 x="0px" y="0px" width="687px" height="178px" viewBox="0 0 687 178" overflow="visible" enable-background="new 0 0 687 178"
	 xml:space="preserve">
<defs>
</defs>
<path fill="#FFFFFF" d="M179.011,125.328V54.527h9.158l43.322,57.035V54.527h8.666v70.801h-9.158l-43.326-57.536v57.536H179.011z
	 M179.011,125.328"/>
<path fill="#FFFFFF" d="M310.46,122.554c-5.708,2.182-11.864,3.269-18.467,3.269c-25.644,0-38.469-12.294-38.469-36.887
	c0-23.27,12.378-34.908,37.134-34.908c7.096,0,13.7,0.994,19.802,2.976v7.921c-6.103-2.311-12.378-3.468-18.813-3.468
	c-19.306,0-28.96,9.162-28.96,27.479c0,19.639,9.504,29.463,28.517,29.463c3.034,0,6.404-0.396,10.103-1.193V93.145h9.154V122.554z
	 M310.46,122.554"/>
<path fill="#FFFFFF" d="M325.067,97.996V54.523h9.154v43.473c0,13.598,6.768,20.4,20.303,20.4c13.531,0,20.301-6.803,20.301-20.4
	V54.523h9.158v43.473c0,18.556-9.82,27.825-29.459,27.825C334.886,125.821,325.067,116.552,325.067,97.996L325.067,97.996z
	 M325.067,97.996"/>
<path fill="#FFFFFF" d="M409.48,54.523v63.376h37.037v7.425h-46.191V54.523H409.48z M409.48,54.523"/>
<path fill="#FFFFFF" d="M459.736,125.327h-9.504l35.201-80.146l35.199,80.146h-10.15l-9.158-22.282h-23.418l2.527-7.424h17.82
	l-13.217-32.088L459.736,125.327z M459.736,125.327"/>
<path fill="#FFFFFF" d="M530.289,125.328V54.527h30.203c13.469,0,20.197,5.659,20.197,16.982c0,9.207-6.578,16.028-19.75,20.445
	l24.309,33.374h-12.086l-22.521-31.835v-5.992c13.531-2.151,20.301-7.344,20.301-15.598c0-6.533-3.766-9.801-11.293-9.801h-20.201
	v63.226H530.289z M530.289,125.328"/>
<path fill="#B52E31" d="M619.561,54.523v50.405c0,13.603-8.006,20.396-24.016,20.396V117.9c9.902,0,14.857-4.329,14.857-12.973
	V54.523H619.561z M619.561,54.523"/>
<path fill="#B52E31" d="M635.896,122.849v-8.418c7.428,2.639,15.447,3.965,24.064,3.965c12.178,0,18.271-4.457,18.271-13.372
	c0-7.584-4.492-11.385-13.469-11.385h-9.113c-14.818,0-22.234-6.435-22.234-19.31c0-13.531,9.492-20.303,28.479-20.303
	c8.25,0,15.922,0.998,23.021,2.976v8.418c-7.1-2.644-14.771-3.965-23.021-3.965c-12.875,0-19.311,4.293-19.311,12.875
	c0,7.588,4.352,11.385,13.066,11.385h9.113c15.08,0,22.627,6.439,22.627,19.31c0,13.864-9.141,20.796-27.43,20.796
	C651.344,125.819,643.324,124.826,635.896,122.849L635.896,122.849z M635.896,122.849"/>
<path fill="#FFFFFF" d="M533.812,165.946h1.945v-1.605c0.447,0.602,0.867,1.039,1.26,1.312c0.658,0.461,1.467,0.691,2.424,0.691
	c1.709,0,3.047-0.656,4.012-1.969c0.963-1.312,1.445-2.961,1.445-4.945c0-2.094-0.488-3.678-1.463-4.752
	c-0.977-1.074-2.25-1.611-3.818-1.611c-0.754,0-1.451,0.158-2.094,0.475c-0.645,0.316-1.197,0.775-1.66,1.377v-6.246h-2.051V165.946
	L533.812,165.946z M539.311,164.481c-1.521,0-2.561-0.691-3.117-2.074c-0.297-0.734-0.447-1.691-0.447-2.871
	c0-1.633,0.363-2.805,1.088-3.516c0.727-0.711,1.57-1.066,2.535-1.066c1.104,0,1.941,0.434,2.51,1.301s0.852,1.961,0.852,3.281
	c0,1.484-0.283,2.68-0.852,3.586S540.453,164.481,539.311,164.481L539.311,164.481L539.311,164.481z M551.795,163.618l-3.363-10.223
	h-2.391l4.641,12.92c-0.109,0.28-0.283,0.709-0.525,1.286s-0.383,0.896-0.422,0.959c-0.125,0.188-0.279,0.345-0.461,0.474
	c-0.184,0.129-0.471,0.193-0.861,0.193c-0.125,0-0.27-0.012-0.432-0.035c-0.164-0.023-0.43-0.086-0.797-0.188v1.922
	c0.234,0.062,0.432,0.105,0.592,0.129s0.389,0.035,0.686,0.035c1.217,0,2.076-0.352,2.576-1.055
	c0.498-0.702,1.357-2.654,2.574-5.854c0.516-1.36,1.156-3.119,1.922-5.276c1.023-2.868,1.684-4.705,1.98-5.51h-2.332
	L551.795,163.618L551.795,163.618z"/>
<path fill="#B2B2B2" d="M82.688,0L0,29.1l13.066,108.335l69.71,38.314l70.069-38.834l13.062-108.331L82.688,0z M82.688,0"/>
<path fill="#B52E31" d="M157.66,34.846L82.496,9.214v157.381l62.991-34.861L157.66,34.846z M157.66,34.846"/>
<path fill="#E23237" d="M9.279,35.308l11.196,96.889l62.019,34.398V9.211L9.279,35.308z M9.279,35.308"/>
<path fill="#F2F2F2" d="M99.918,87.493L82.632,51.396L67.415,87.493H99.918z M106.508,102.672h-45.82l-10.251,25.64l-19.067,0.352
	L82.496,14.929l52.908,113.734h-17.673L106.508,102.672z M106.508,102.672"/>
<path fill="#B2B2B2" d="M82.496,14.929l0.136,36.467l17.268,36.125H82.534l-0.039,15.127l24.012,0.023l11.223,25.996l18.245,0.339
	L82.496,14.929z M82.496,14.929"/>
<g id="XMLID_1_">
	<g>
		<path fill="#FFFFFF" d="M604.7,146.53c6.872-0.793,12.015,3.961,11.096,10.959c-0.879,6.683-9.395,10.638-15.615,6.849
			c-1.97-1.199-3.979-3.493-4.384-6.712c-0.645-5.086,2.237-8.607,5.205-10.137C601.943,147.004,603.04,146.725,604.7,146.53z
			 M610.864,162.146c3.14-5.126-0.861-14.731-6.026-14.383c-8.784,0.599-4.681,15.519,0.685,16.574
			C607.691,164.766,610.048,163.481,610.864,162.146z"/>
		<path fill="#FFFFFF" d="M582.373,158.311c2.072-2.402,7.231-1.718,11.644-1.78c-1.775,0.924-1.147,5.428-1.233,8.492
			c-7.848,2.694-18.611,3.168-23.834-2.055c-2.26-2.26-3.373-5.039-4.109-8.767c0-1.187,0-2.374,0-3.562
			c0.937-12.521,17.967-17.225,27.807-9.999c-1.438,1.301-2.312,3.168-4.657,3.562c0.114-0.754,0.759-0.977,0.822-1.781
			c-2.803-3.681-10.114-4.736-14.521-2.055c-1.512,0.919-2.682,2.386-3.561,3.973c-5.941,10.765,4.742,25.164,17.807,20.136
			c0-2.191,0-4.383,0-6.575C586.619,158.174,584.348,158.094,582.373,158.311z"/>
		<path fill="#FFFFFF" d="M683.873,162.283c0.291,0.131-0.37,0.645-0.685,0.959c-1.632,1.644-4.338,2.87-8.082,2.465
			c-7.214-0.775-10.284-11.494-5.342-16.574c3.47-3.566,12.288-4.109,13.698,2.192c-3.853,1.718-7.163,3.978-12.466,4.246
			C671.54,161.484,678.086,165.799,683.873,162.283z M670.997,155.297c2.825-1.244,5.937-2.191,8.356-3.835
			c-0.114-3.756-4.566-4.577-6.85-2.603C670.918,150.234,670.638,152.598,670.997,155.297z"/>
		<path fill="#FFFFFF" d="M664.148,163.379c0.725,0.645,2.306,0.434,3.425,0.685c-1.495,1.701-5.708,0.686-8.63,0.959
			c0.434-0.799,0.937-1.13,1.096-2.055c0.616-3.602,0-8.219,0-12.465c0-4.366,0-8.664,0-12.602c-1.004,0-2.009,0-3.014,0
			c0.742-0.674,1.976-0.856,2.74-1.507c2.009,0,4.018,0,6.026,0c-2.465,0.673-1.78,4.383-1.78,7.671
			C664.012,150.463,663.903,157.957,664.148,163.379z"/>
		<path fill="#FFFFFF" d="M636.616,151.462c1.449,2.831,1.262,6.843-0.411,9.588c-2.711,4.452-9.651,5.913-14.108,3.288
			c-3.219-1.896-6.05-7.517-3.562-12.465c1.353-2.688,4.161-5.018,8.63-5.343C631.736,146.193,635.212,148.723,636.616,151.462z
			 M627.713,164.475c9.269,0.976,6.032-14.765,1.096-16.574c-0.754-0.279-2.151-0.229-2.739-0.137
			C618.067,149.048,621.565,163.824,627.713,164.475z"/>
		<path fill="#FFFFFF" d="M655.52,166.118c4.092,4.777-0.794,11.016-6.712,11.506c-1.553,0-3.105,0-4.657,0
			c-4.161-0.588-7.917-3.727-6.027-7.944c1.433-3.202,5.434-4.2,10.137-4.521c-0.32-0.787-1.541-2.653-0.686-4.246
			c-5.879,0.754-9.395-4.44-7.26-9.178c2.369-5.262,10.131-5.131,17.533-4.794c-1.256,0.845-2.392,1.81-4.794,1.507
			c1.689,1.735,3.681,4.446,2.191,7.944c-0.696,1.633-4.172,3.419-4.109,5.205C651.198,163.327,654.246,164.635,655.52,166.118z
			 M654.013,173.241c0.713-1.701-0.126-3.282-0.822-4.109c-1.256-1.489-2.482-2.785-4.657-2.739
			c-3.767,0.08-5.759,1.307-6.438,2.191c-0.611,0.793-0.822,1.935-0.822,2.466C641.273,176.928,652.283,177.385,654.013,173.241z
			 M647.301,159.681c7.391,1.764,5.113-11.985-0.686-11.369c-0.091,0.011-0.137,0.137-0.137,0.137
			C640.874,149.281,643.728,158.824,647.301,159.681z"/>
	</g>
	<g>
	</g>
</g>
</svg>
